Coordinates
version=1
nRows=26
nColumns=24
inDegrees=yes

Units are S.I. units (second, meters, Newtons, ...)
Angles are in degrees.

endheader
time	pelvis_tilt	pelvis_list	pelvis_rotation	pelvis_tx	pelvis_ty	pelvis_tz	hip_flexion_r	hip_adduction_r	hip_rotation_r	knee_angle_r	ankle_angle_r	subtalar_angle_r	mtp_angle_r	hip_flexion_l	hip_adduction_l	hip_rotation_l	knee_angle_l	ankle_angle_l	subtalar_angle_l	mtp_angle_l	lumbar_extension	lumbar_bending	lumbar_rotation
      3.97000000	     -9.74497561	     -6.72195372	      6.73812854	     -0.19150495	     -0.04195632	      0.66381534	     33.40891349	      3.63525723	     -1.49003650	    -34.95284997	      2.59742117	     -2.95383836	     15.48057070	     12.76170540	     -5.81999925	      2.92974797	    -58.57847947	    -18.39030128	      6.99872509	     15.07635695	      9.85138607	     14.07068770	     -9.77437867
      3.97500000	     -9.68331151	     -6.75667154	      6.52505023	     -0.18444868	     -0.04091672	      0.66445280	     32.76998145	      3.90032583	     -1.33118791	    -34.73644860	      3.03573063	     -2.86984462	     15.13872238	     13.75589796	     -5.85730217	      2.65362090	    -59.97888303	    -17.90338135	      7.60532782	     17.84452843	      9.69009958	     14.16637250	     -9.28468413
      3.98000000	     -9.63878285	     -6.75293441	      6.32747590	     -0.17741420	     -0.03980393	      0.66505550	     32.12401358	      4.11379216	     -1.16109199	    -34.48061424	      3.43040828	     -2.79925059	     14.92929693	     14.75729950	     -5.84787424	      2.40631115	    -61.27955841	    -17.51044991	      8.23757921	     20.67480249	      9.55023477	     14.21012764	     -8.81727051
      3.98500000	     -9.57644964	     -6.72712573	      6.12980843	     -0.17041892	     -0.03859503	      0.66565203	     31.43413718	      4.30545640	     -0.96151385	    -34.18010683	      3.79344122	     -2.70940989	     14.80865802	     15.72693548	     -5.82631091	      2.15650849	    -62.47529130	    -17.23778667	      8.85297705	     23.49475071	      9.38789146	     14.22577379	     -8.36937729
      3.99000000	     -9.52824808	     -6.68846592	      5.93628458	     -0.16343136	     -0.03734982	      0.66622970	     30.73583584	      4.47439678	     -0.75870202	    -33.83822086	      4.12719912	     -2.64080156	     14.71616713	     16.70461131	     -5.79234290	      1.91389295	    -63.58801416	    -17.01662746	      9.43398343	     25.97871806	      9.24536148	     14.22116832	     -7.92995977
      3.99500000	     -9.48058001	     -6.64717979	      5.74621698	     -0.15645695	     -0.03607038	      0.66678689	     30.01547635	      4.63220482	     -0.55206073	    -33.45633827	      4.45226063	     -2.57164324	     14.57481505	     17.67725174	     -5.76210568	      1.66788456	    -64.61941165	    -16.85465005	      9.91927372	     28.08222025	      9.10887326	     14.20919761	     -7.50683915
      4.00000000	     -9.44077602	     -6.61308919	      5.55926088	     -0.14952881	     -0.03478912	      0.66731236	     29.29113997	      4.78409595	     -0.35812304	    -33.04570251	      4.75296888	     -2.51226323	     14.34698635	     18.66184980	     -5.74229455	      1.42000219	    -65.58911955	    -16.70506064	     10.27641668	     29.67970794	      8.98085258	     14.20229999	     -7.08012911
      4.00500000	     -9.40962353	     -6.56109174	      5.36361196	     -0.14256260	     -0.03351954	      0.66783095	     28.54960049	      4.91376202	     -0.14305453	    -32.59308727	      5.06261995	     -2.45527119	     14.20468399	     19.63978106	     -5.70911649	      1.15735504	    -66.50424001	    -16.40885249	     10.58870278	     30.45850239	      8.87155253	     14.17051917	     -6.67098933
      4.01000000	     -9.35448617	     -6.57587138	      5.23326268	     -0.13558740	     -0.03221270	      0.66815229	     27.75145054	      5.05697601	     -0.02188005	    -32.06705631	      5.34102911	     -2.32665588	     14.17558604	     20.61286649	     -5.73033874	      0.91751986	    -67.35624738	    -16.18179221	     10.48706167	     30.79070983	      8.77238110	     14.21063270	     -6.35557134
      4.01500000	     -9.35676475	     -6.56717146	      5.03240693	     -0.12867773	     -0.03098800	      0.66877010	     27.02686735	      5.23907413	      0.22242206	    -31.58343196	      5.68516311	     -2.29188115	     13.43505907	     21.61541707	     -5.77102453	      0.66041017	    -68.06044128	    -16.20993921	     10.41297748	     31.93066011	      8.70132310	     14.20685694	     -5.96212916
      4.02000000	     -9.32265424	     -6.58193305	      4.89440548	     -0.12173644	     -0.02973094	      0.66913764	     26.22796208	      5.38373794	      0.38073363	    -31.00884558	      5.90898705	     -2.20942687	     13.42380673	     22.58197876	     -5.79893436	      0.44398538	    -68.73889288	    -15.96002693	     10.15544001	     32.05277286	      8.62299743	     14.23513236	     -5.65397234
      4.02500000	     -9.31340785	     -6.61547908	      4.68748502	     -0.11484922	     -0.02856848	      0.66967213	     25.46410095	      5.58582394	      0.58746095	    -30.43544155	      6.09734332	     -2.25522287	     13.32178314	     23.57082766	     -5.89953939	      0.14909408	    -69.36154162	    -15.72637272	      9.79240958	     32.05881814	      8.54235044	     14.28297339	     -5.26592660
      4.03000000	     -9.32756099	     -6.61362988	      4.46105851	     -0.10790114	     -0.02740364	      0.67024108	     24.69749257	      5.77604071	      0.92890088	    -29.83246962	      6.24286971	     -2.40268388	     13.03829903	     24.54119461	     -5.96231506	     -0.15681675	    -69.89306513	    -15.34516406	      9.37670082	     31.74094237	      8.49365762	     14.28820357	     -4.87041473
      4.03500000	     -9.31195641	     -6.63988909	      4.26977573	     -0.10097614	     -0.02626414	      0.67070918	     23.89463711	      5.95672343	      1.17425564	    -29.21258190	      6.42049703	     -2.44805135	     12.75649438	     25.47989562	     -6.04344869	     -0.41444514	    -70.36314904	    -14.92790713	      8.93196188	     31.34419714	      8.41830499	     14.32577704	     -4.51264358
      4.04000000	     -9.29599081	     -6.65414816	      4.06928208	     -0.09406381	     -0.02515739	      0.67120116	     23.08536069	      6.12626143	      1.44493180	    -28.58277858	      6.58723377	     -2.51386579	     12.44239889	     26.39465956	     -6.11687712	     -0.65886612	    -70.75232005	    -14.47800664	      8.52282070	     30.94593039	      8.33377764	     14.34868980	     -4.14338931
      4.04500000	     -9.27722178	     -6.65403730	      3.86305449	     -0.08715045	     -0.02407971	      0.67170716	     22.26648262	      6.27970877	      1.73294060	    -27.94341695	      6.74347773	     -2.60107005	     12.10520423	     27.28020190	     -6.18052270	     -0.89467861	    -71.05609230	    -14.02030579	      8.12896752	     30.56897562	      8.24142740	     14.35379829	     -3.77563936
      4.05000000	     -9.24929293	     -6.64064958	      3.65461134	     -0.08023635	     -0.02301682	      0.67220303	     21.42948647	      6.41443075	      2.04972208	    -27.29686632	      6.91840746	     -2.63386413	     11.67264971	     28.13376949	     -6.22841357	     -1.10404703	    -71.28816907	    -13.52462609	      7.82724117	     30.03985008	      8.13340832	     14.34667836	     -3.38313587
      4.05500000	     -9.24333881	     -6.62370656	      3.44872169	     -0.07337249	     -0.02205198	      0.67270037	     20.63245360	      6.52748948	      2.29278275	    -26.65955607	      7.02479761	     -2.72693884	     11.49154221	     28.99013469	     -6.27595466	     -1.30843477	    -71.41954368	    -13.14177594	      7.41058038	     29.92446539	      8.04097952	     14.32932360	     -3.01274652
      4.06000000	     -9.22289306	     -6.55981097	      3.20164427	     -0.06647084	     -0.02108261	      0.67330909	     19.80422213	      6.62352113	      2.68995928	    -26.01263442	      7.11673144	     -2.88566331	     11.25881146	     29.78655091	     -6.31005594	     -1.55358289	    -71.46049545	    -12.74829191	      7.07322540	     29.68913967	      7.92211444	     14.26134965	     -2.60858125
      4.06500000	     -9.19434368	     -6.46454326	      2.95480021	     -0.05958675	     -0.02015223	      0.67391682	     18.97223991	      6.68006861	      3.09821370	    -25.37806560	      7.21451737	     -3.04419640	     11.00328126	     30.54753104	     -6.31600467	     -1.79751359	    -71.42121869	    -12.34751281	      6.76074128	     29.36147129	      7.78634860	     14.15445379	     -2.20788120
      4.07000000	     -9.16770774	     -6.34163996	      2.71143907	     -0.05270756	     -0.01927941	      0.67453723	     18.14977722	      6.69938094	      3.50933049	    -24.75970756	      7.31858427	     -3.19881139	     10.73501968	     31.28541478	     -6.29806781	     -2.03954828	    -71.30190155	    -11.95425980	      6.45416496	     28.97888225	      7.64970978	     14.01347671	     -1.81476541
      4.07500000	     -9.14148003	     -6.19327678	      2.46943404	     -0.04584227	     -0.01846900	      0.67515817	     17.33774153	      6.68417402	      3.92558037	    -24.16000338	      7.42839370	     -3.36056399	     10.44834368	     31.99971586	     -6.26179147	     -2.28787293	    -71.10445266	    -11.57345527	      6.14890775	     28.54870241	      7.51037286	     13.84103218	     -1.42848573
      4.08000000	     -9.11489817	     -6.02488216	      2.22913592	     -0.03899310	     -0.01772836	      0.67577739	     16.53851193	      6.63954659	      4.33967227	    -23.58295377	      7.54238451	     -3.52294304	     10.14599943	     32.69093785	     -6.21139718	     -2.53850617	    -70.83238842	    -11.19775850	      5.84372790	     28.06523751	      7.36803478	     13.64226991	     -1.04642083
      4.08500000	     -9.09022370	     -5.83828474	      1.99094678	     -0.03216720	     -0.01706383	      0.67639195	     15.75498001	      6.56773476	      4.75582803	    -23.02761350	      7.66210747	     -3.68736711	      9.84798479	     33.36378899	     -6.15046416	     -2.79445977	    -70.48894541	    -10.82986919	      5.53884708	     27.52830366	      7.22485068	     13.42352719	     -0.67556092
      4.09000000	     -9.01991957	     -5.68940947	      1.73458131	     -0.02533734	     -0.01645761	      0.67701227	     14.93002560	      6.53210995	      5.18812088	    -22.48773228	      7.82253555	     -3.74517730	      9.44604260	     33.97583775	     -6.15649782	     -3.06101307	    -70.11965309	    -10.31780882	      5.30859289	     26.56783189	      7.03212302	     13.24544257	     -0.31683715
      4.09500000	     -9.02543357	     -5.47819041	      1.51004548	     -0.01856446	     -0.01600355	      0.67761208	     14.21267673	      6.41647536	      5.59932561	    -21.98464759	      7.95329528	     -3.91730919	      9.23117307	     34.64971388	     -6.07131663	     -3.30113326	    -69.64922120	     -9.97191687	      4.98592469	     25.92643913	      6.92120764	     12.98536220	      0.01355607
